<?xml version="1.0" standalone="no"?>
<!DOCTYPE svg PUBLIC "-//W3C//DTD SVG 20010904//EN"
 "http://www.w3.org/TR/2001/REC-SVG-20010904/DTD/svg10.dtd">
<svg version="1.0" xmlns="http://www.w3.org/2000/svg"
 width="2000.000000pt" height="1454.000000pt" viewBox="0 0 2000.000000 1454.000000"
 preserveAspectRatio="xMidYMid meet">

<g transform="translate(0.000000,1454.000000) scale(0.100000,-0.100000)"
fill="#000000" stroke="none">
<path d="M5885 12430 c-143 -19 -326 -91 -440 -174 -195 -141 -336 -361 -386
-601 -18 -86 -19 -164 -19 -1582 l0 -1493 3310 0 3310 0 0 1533 c0 986 4 1564
10 1622 28 238 118 445 274 628 l67 77 -3033 -1 c-1668 -1 -3060 -5 -3093 -9z
m25 -1492 c59 -31 82 -66 88 -130 3 -44 0 -59 -20 -87 -37 -55 -71 -74 -138
-79 -84 -6 -124 4 -164 41 -68 65 -70 161 -5 226 54 55 162 67 239 29z m1100
-4 c101 -59 104 -195 6 -268 -26 -20 -43 -21 -306 -24 -264 -3 -281 -2 -319
17 -98 50 -117 173 -38 249 19 18 47 37 63 42 16 5 148 8 294 7 247 -2 267 -3
300 -23z m3990 1 c79 -46 101 -158 45 -231 -53 -69 81 -64 -1805 -64 -1880 0
-1753 -4 -1803 62 -68 89 -27 215 82 249 14 4 796 7 1736 6 1697 -2 1710 -2
1745 -22z m-5070 -1327 c96 -66 90 -210 -10 -267 -29 -16 -55 -21 -109 -21
-84 0 -118 14 -158 66 -35 47 -39 128 -7 171 42 57 79 73 169 73 69 0 87 -4
115 -22z m1086 2 c45 -28 78 -99 71 -152 -6 -48 -30 -84 -77 -115 -32 -23 -39
-23 -315 -23 -276 0 -283 0 -315 23 -100 67 -98 206 4 268 29 17 54 19 315 19
268 0 285 -1 317 -20z m3991 -2 c46 -32 77 -98 70 -150 -6 -48 -30 -84 -77
-115 l-33 -23 -1727 0 -1727 0 -33 23 c-55 37 -75 72 -75 132 0 60 20 95 75
133 l33 22 1730 0 1731 0 33 -22z"/>
<path d="M12632 12425 c-164 -38 -286 -107 -413 -234 -83 -84 -101 -109 -147
-201 -94 -193 -86 -54 -89 -1517 l-4 -1293 826 0 825 0 0 1234 c0 817 -4 1261
-11 1313 -44 323 -277 593 -591 684 -95 27 -304 35 -396 14z"/>
<path d="M3945 8088 c-26 -114 -102 -575 -95 -582 10 -10 12 -8 115 225 48
106 97 211 108 232 36 64 49 67 292 67 l215 0 -2 -917 -3 -918 -145 -11 c-164
-13 -150 -11 -150 -24 0 -7 142 -10 405 -10 231 0 405 4 405 9 0 14 -34 19
-172 27 l-128 7 0 918 0 919 230 0 c185 0 237 -3 260 -15 33 -17 46 -43 156
-317 72 -180 102 -232 97 -167 -6 76 -56 575 -59 577 -1 2 -31 -7 -66 -20
l-63 -23 -635 0 c-634 0 -635 0 -695 23 -32 12 -61 22 -62 22 -1 0 -5 -10 -8
-22z"/>
<path d="M9185 8088 c-28 -122 -102 -575 -95 -582 6 -6 22 19 43 65 19 41 69
152 112 248 64 141 84 177 109 192 28 17 53 19 244 19 l212 0 0 -919 0 -918
-127 -7 c-136 -8 -163 -12 -163 -27 0 -5 161 -9 405 -9 231 0 405 4 405 9 0
14 -34 19 -172 27 l-128 7 0 918 0 919 230 0 c185 0 237 -3 260 -15 34 -17 48
-47 155 -318 71 -178 104 -234 98 -166 -32 334 -57 566 -62 571 -4 4 -31 -2
-61 -15 -55 -22 -55 -22 -695 -22 -639 0 -640 0 -700 23 -32 12 -61 22 -62 22
-1 0 -5 -10 -8 -22z"/>
<path d="M13660 7223 c-182 -488 -342 -911 -355 -940 -31 -68 -58 -84 -163
-95 -115 -13 -132 -17 -132 -28 0 -6 109 -10 295 -10 186 0 295 4 295 10 0 12
-26 17 -124 24 -96 7 -126 23 -126 69 1 17 54 172 118 342 l118 310 336 3 336
2 71 -192 c39 -106 97 -265 130 -353 32 -88 58 -161 57 -162 -1 -1 -42 -7 -91
-13 -116 -14 -135 -18 -135 -30 0 -6 125 -10 341 -10 266 0 340 3 337 12 -3 8
-46 18 -113 25 -60 7 -111 15 -113 18 -2 2 -161 431 -352 952 -328 897 -348
948 -372 951 -25 3 -32 -16 -358 -885z m429 149 c83 -227 151 -415 151 -418 0
-2 -142 -4 -315 -4 -225 0 -315 3 -315 11 0 9 64 182 302 818 5 14 12 20 17
15 5 -5 77 -195 160 -422z"/>
<path d="M2010 8051 c0 -5 30 -12 68 -15 37 -4 88 -9 114 -12 l47 -6 3 -726
c4 -713 4 -728 26 -806 12 -44 33 -98 47 -121 57 -98 172 -178 320 -225 97
-31 283 -38 380 -16 171 41 305 141 370 278 68 143 68 139 74 891 l6 679 26
22 c19 16 46 25 90 30 130 14 159 19 159 27 0 5 -135 9 -300 9 -172 0 -300 -4
-300 -9 0 -5 28 -12 63 -16 117 -12 171 -25 192 -45 20 -20 20 -32 20 -688 -1
-745 -1 -748 -70 -889 -104 -211 -387 -314 -643 -234 -164 51 -224 150 -242
401 -5 69 -10 420 -10 781 l0 657 53 6 c28 3 82 8 120 12 37 3 70 10 73 15 3
5 -143 9 -340 9 -194 0 -346 -4 -346 -9z"/>
<path d="M5730 8051 c0 -4 28 -11 63 -15 34 -3 86 -9 115 -12 l52 -6 -2 -912
-3 -911 -110 -11 c-127 -14 -115 -11 -115 -24 0 -6 118 -10 335 -10 300 0 369
5 322 23 -8 3 -60 8 -115 12 l-102 8 0 912 0 913 48 6 c26 3 77 8 115 12 37 3
67 10 67 15 0 5 -148 9 -335 9 -184 0 -335 -4 -335 -9z"/>
<path d="M6620 8051 c0 -4 28 -11 63 -15 34 -3 86 -9 115 -12 l52 -6 -2 -912
-3 -911 -110 -11 c-127 -14 -115 -11 -115 -24 0 -7 233 -10 678 -10 l678 0 33
283 c36 320 36 327 17 327 -10 0 -46 -81 -106 -232 -51 -128 -101 -250 -111
-270 -37 -73 -33 -73 -411 -76 l-338 -3 0 919 0 920 53 6 c28 3 82 8 120 12
37 3 67 10 67 15 0 5 -150 9 -340 9 -187 0 -340 -4 -340 -9z"/>
<path d="M8234 8051 c3 -5 34 -12 68 -15 35 -4 84 -9 111 -12 l47 -6 0 -913 0
-913 -97 -6 c-111 -8 -136 -13 -128 -27 8 -12 665 -12 665 0 0 14 -25 19 -127
27 l-93 7 0 912 0 913 43 5 c23 4 72 9 110 13 152 15 49 24 -269 24 -196 0
-333 -4 -330 -9z"/>
<path d="M10786 8051 c5 -6 56 -15 114 -21 57 -5 110 -16 116 -23 6 -6 142
-258 303 -558 l291 -545 0 -356 0 -355 -102 -7 c-113 -8 -138 -13 -138 -27 0
-5 140 -9 350 -9 210 0 350 4 350 9 0 14 -25 19 -137 27 l-103 7 0 362 0 361
249 520 c141 295 261 532 277 550 31 33 47 38 182 50 39 3 72 10 72 15 0 5
-128 9 -297 9 -306 0 -367 -10 -174 -28 90 -8 107 -13 123 -32 12 -15 16 -31
12 -49 -9 -38 -458 -974 -469 -978 -10 -3 -570 1035 -563 1043 3 2 54 9 114
15 205 20 137 29 -226 29 -221 0 -350 -4 -344 -9z"/>
<path d="M15040 8052 c0 -5 28 -12 63 -16 34 -3 86 -9 115 -12 l52 -6 -2 -912
-3 -911 -110 -11 c-127 -14 -115 -11 -115 -24 0 -6 125 -10 355 -10 230 0 355
4 355 10 0 13 13 11 -135 24 l-130 11 -3 393 -2 392 152 0 c331 0 501 45 627
165 102 97 151 221 151 382 0 260 -127 425 -390 504 -72 22 -91 23 -527 27
-274 2 -453 -1 -453 -6z m894 -52 c153 -59 225 -205 226 -457 0 -266 -69 -417
-225 -490 -58 -27 -66 -28 -257 -31 l-198 -4 0 507 0 507 198 -4 c176 -4 203
-7 256 -28z"/>
<path d="M16614 8051 c3 -5 34 -12 68 -15 35 -4 84 -9 111 -12 l47 -6 0 -913
0 -913 -97 -6 c-108 -8 -133 -13 -133 -27 0 -5 144 -9 360 -9 233 0 360 4 360
10 0 13 14 11 -140 24 l-135 11 -3 393 -2 392 158 0 c183 0 299 12 397 41 258
77 378 241 378 514 0 87 -5 124 -23 174 -60 178 -197 287 -415 332 -79 17
-140 19 -513 19 -249 0 -421 -4 -418 -9z m883 -47 c83 -30 134 -73 170 -141
53 -98 67 -169 66 -328 -2 -289 -81 -440 -260 -495 -55 -17 -93 -20 -244 -20
l-179 0 0 506 0 506 198 -4 c161 -4 207 -8 249 -24z"/>
<path d="M6383 5610 c-95 -57 -181 -349 -171 -579 5 -117 24 -171 75 -211 43
-34 124 -25 186 20 75 53 107 121 72 150 -12 10 -23 3 -64 -38 -53 -53 -96
-70 -130 -52 -40 21 -37 54 12 128 58 87 108 189 138 277 19 56 24 91 24 172
0 94 -2 103 -24 127 -30 32 -73 34 -118 6z m67 -139 c0 -95 -70 -300 -124
-366 -16 -19 -16 -16 -10 50 12 143 55 320 90 373 24 37 44 12 44 -57z"/>
<path d="M7089 5615 c-91 -49 -173 -308 -174 -545 0 -186 34 -257 128 -267 63
-7 110 11 167 67 53 51 66 95 36 119 -11 10 -22 3 -56 -33 -68 -73 -136 -84
-160 -26 -11 26 -9 33 29 88 83 123 150 277 171 394 29 158 -40 258 -141 203z
m59 -138 c2 -38 -4 -92 -13 -129 -18 -68 -103 -258 -116 -258 -17 0 17 235 51
350 21 72 46 113 63 107 7 -2 13 -31 15 -70z"/>
<path d="M2355 5540 c-193 -31 -280 -109 -260 -232 12 -69 60 -97 104 -60 19
16 20 20 7 56 -26 75 13 118 120 133 l47 6 -7 -61 c-3 -34 -9 -89 -12 -122
l-7 -60 -38 0 c-28 0 -42 -6 -53 -22 -9 -12 -16 -26 -16 -30 0 -19 42 -48 68
-48 l29 0 -9 -57 c-12 -77 -37 -124 -79 -147 -50 -27 -100 -16 -147 35 -53 56
-82 52 -84 -11 -2 -64 86 -119 190 -120 131 0 205 64 232 202 22 109 10 98
106 98 77 0 87 2 109 25 29 28 31 47 9 70 -13 13 -34 16 -103 14 -79 -2 -86 0
-86 17 0 10 4 66 8 122 l9 104 162 -7 c178 -8 191 -5 184 51 -2 21 -10 30 -33
36 -44 13 -380 18 -450 8z"/>
<path d="M15476 5389 c-29 -23 -35 -63 -13 -93 10 -13 27 -19 56 -19 53 0 81
24 81 69 0 60 -71 85 -124 43z"/>
<path d="M12327 5203 c-8 -10 -31 -52 -50 -93 -19 -41 -58 -106 -86 -145 -53
-72 -61 -107 -27 -113 23 -5 88 57 123 116 14 23 26 42 28 42 8 0 53 -66 60
-87 6 -21 3 -23 -38 -23 -74 0 -103 -58 -51 -99 32 -25 101 -28 130 -6 10 8
28 15 39 15 101 2 223 127 172 177 -13 13 -21 9 -67 -36 -29 -28 -56 -51 -60
-51 -4 0 -10 15 -13 34 -3 19 -26 65 -51 102 -25 36 -46 70 -46 75 0 6 7 26
15 46 8 19 15 42 15 49 0 21 -73 18 -93 -3z"/>
<path d="M17683 5213 c-7 -2 -32 -47 -57 -99 -25 -51 -65 -121 -91 -154 -49
-63 -56 -102 -21 -108 22 -5 76 46 118 111 33 52 45 51 74 -4 24 -47 19 -59
-24 -59 -69 0 -96 -60 -46 -99 32 -25 87 -27 128 -6 15 8 38 15 50 15 66 1
167 84 168 139 2 60 -17 60 -77 1 -30 -30 -56 -52 -58 -49 -2 2 -9 22 -15 44
-6 23 -30 65 -52 95 -44 59 -48 76 -24 121 8 17 13 37 10 45 -5 14 -57 18 -83
7z"/>
<path d="M3185 5187 c-23 -13 -52 -43 -70 -71 -26 -44 -30 -58 -30 -125 0 -59
5 -84 21 -111 73 -125 253 -99 305 44 10 28 19 36 48 41 83 14 92 17 101 40 5
13 6 33 3 45 -5 20 -10 21 -47 16 -23 -4 -51 -9 -62 -12 -18 -5 -23 1 -33 38
-28 108 -136 151 -236 95z m95 -102 c0 -39 22 -91 41 -97 17 -6 3 -54 -21 -78
-28 -28 -64 -25 -90 8 -31 38 -25 139 10 177 35 38 60 33 60 -10z"/>
<path d="M3956 5187 c-41 -62 -61 -282 -32 -352 12 -29 20 -35 45 -35 34 0 44
14 68 93 26 88 81 187 105 187 4 0 8 -23 8 -50 0 -41 5 -56 25 -75 59 -60 215
-1 215 82 0 36 -26 39 -71 7 -38 -26 -42 -27 -54 -11 -9 12 -10 31 -2 73 13
75 0 104 -45 104 -64 0 -122 -51 -179 -153 -34 -61 -34 -58 -10 53 11 47 17
88 14 93 -2 4 -20 7 -38 7 -25 0 -39 -6 -49 -23z"/>
<path d="M5502 5189 c-139 -69 -193 -317 -81 -374 50 -26 94 -19 139 21 22 20
40 32 40 27 0 -6 12 -22 26 -37 47 -47 106 -32 181 46 49 50 60 84 39 113 -15
19 -17 18 -71 -38 -91 -95 -109 -72 -80 100 10 56 15 109 12 117 -4 10 -19 16
-42 16 -22 0 -38 6 -41 15 -9 22 -71 19 -122 -6z m87 -149 c-27 -134 -54 -174
-100 -150 -15 8 -19 22 -19 58 0 84 64 181 121 182 15 0 15 -8 -2 -90z"/>
<path d="M8306 5188 c-21 -32 -43 -123 -52 -208 -18 -181 105 -248 187 -102
11 21 18 29 15 19 -3 -10 -6 -30 -6 -45 0 -19 -22 -47 -95 -115 -107 -101
-145 -163 -145 -238 0 -40 4 -51 31 -73 69 -58 158 -16 214 102 15 31 39 104
53 161 l26 103 86 58 c99 67 113 81 108 112 -5 37 -34 32 -104 -17 -37 -25
-68 -44 -70 -43 -1 2 8 69 21 148 13 80 21 148 19 152 -3 5 -21 8 -39 8 -28 0
-37 -6 -50 -30 -8 -16 -15 -34 -15 -40 0 -6 -14 -46 -30 -89 -31 -80 -72 -137
-90 -126 -15 9 -12 81 9 180 11 49 17 93 14 97 -2 5 -20 8 -38 8 -25 0 -39 -6
-49 -22z m95 -566 c-35 -115 -92 -178 -107 -117 -9 37 19 94 73 150 25 25 47
44 50 41 2 -2 -5 -35 -16 -74z"/>
<path d="M9195 5195 c-79 -41 -121 -128 -113 -235 14 -195 264 -219 329 -32 9
26 17 31 69 41 66 13 83 28 78 68 -3 31 -18 34 -90 20 -37 -8 -37 -7 -48 33
-6 23 -26 58 -44 78 -30 32 -39 36 -92 39 -40 3 -68 -1 -89 -12z m75 -100 c0
-33 22 -86 44 -104 20 -16 13 -45 -17 -78 -39 -43 -105 -15 -108 45 -5 76 5
115 37 146 24 24 44 20 44 -9z"/>
<path d="M9961 5197 c-33 -40 -68 -227 -56 -299 9 -52 49 -98 85 -98 34 0 73
30 90 70 13 31 30 32 30 1 0 -10 9 -30 21 -45 42 -53 150 -22 222 63 29 35 37
96 15 104 -7 2 -39 -20 -70 -49 -61 -59 -69 -62 -89 -38 -10 13 -8 39 13 152
15 75 24 140 22 144 -6 9 -46 11 -68 2 -8 -3 -29 -47 -46 -98 -33 -101 -83
-190 -103 -183 -17 6 -13 127 7 205 9 34 14 67 11 72 -9 15 -71 12 -84 -3z"/>
<path d="M10778 5193 c-26 -32 -39 -96 -44 -218 -6 -144 3 -170 56 -170 34 0
35 1 65 85 45 122 83 190 107 190 4 0 8 -23 8 -50 0 -41 5 -56 25 -75 59 -60
215 0 215 83 0 35 -26 37 -71 6 -34 -23 -42 -25 -54 -13 -10 11 -11 27 -4 74
13 76 2 105 -40 105 -16 0 -41 -4 -54 -9 -37 -14 -95 -79 -128 -141 -33 -65
-34 -61 -10 50 11 47 17 88 14 93 -9 14 -70 7 -85 -10z"/>
<path d="M13079 5187 c-64 -34 -100 -97 -106 -184 -6 -91 21 -147 87 -181 62
-32 167 -27 233 11 86 50 130 125 93 157 -12 9 -23 4 -58 -28 -77 -70 -143
-93 -202 -68 -20 8 -36 19 -36 23 0 5 23 16 50 26 104 37 156 115 131 197 -21
70 -107 91 -192 47z m99 -69 c20 -20 14 -48 -17 -78 -27 -28 -76 -48 -87 -37
-10 10 15 80 37 103 25 26 49 30 67 12z"/>
<path d="M13797 5192 c-27 -30 -47 -130 -47 -237 0 -123 11 -150 60 -150 l35
0 31 93 c29 89 76 171 102 180 8 3 12 -12 12 -50 0 -71 25 -98 91 -98 77 0
160 70 144 121 -8 24 -37 24 -59 0 -23 -25 -53 -32 -66 -16 -8 10 -8 30 -1 69
15 81 2 106 -54 106 -58 0 -139 -78 -180 -173 -19 -43 -19 -11 0 68 23 94 21
105 -18 105 -20 0 -41 -7 -50 -18z"/>
<path d="M14610 5195 c-10 -12 -12 -49 -7 -163 8 -200 21 -232 98 -232 37 0
90 49 134 125 l27 45 51 -6 c72 -9 135 10 148 43 5 14 7 35 3 45 -6 21 -16 21
-113 2 -30 -6 -34 -5 -28 10 30 78 11 146 -41 146 -63 0 -108 -68 -97 -145 6
-38 3 -49 -31 -101 -45 -68 -41 -78 -52 116 l-7 125 -36 3 c-23 2 -40 -2 -49
-13z"/>
<path d="M15456 5187 c-39 -59 -59 -267 -32 -332 35 -83 139 -73 226 21 31 33
40 52 40 78 0 19 -5 38 -11 41 -5 4 -37 -18 -69 -49 -62 -59 -69 -63 -88 -44
-17 17 -15 57 8 177 11 58 18 111 16 118 -9 23 -74 16 -90 -10z"/>
<path d="M16135 5187 c-52 -29 -93 -90 -105 -156 -27 -146 53 -241 192 -229
105 9 208 84 208 153 0 18 -5 37 -10 40 -6 4 -30 -11 -54 -33 -56 -52 -96 -72
-141 -72 -50 0 -71 14 -85 56 -10 29 -10 49 -1 89 22 99 99 131 93 38 -4 -48
17 -62 54 -38 28 18 39 53 30 100 -14 72 -101 97 -181 52z"/>
<path d="M16885 5194 c-77 -40 -118 -113 -118 -209 0 -121 66 -185 192 -185
109 0 231 82 231 155 0 49 -17 52 -58 12 -74 -71 -183 -103 -227 -67 -23 19
-19 27 23 40 96 31 142 83 142 163 0 40 -5 54 -29 78 -24 24 -38 29 -78 29
-26 0 -61 -7 -78 -16z m79 -70 c10 -4 16 -18 16 -36 0 -33 -35 -71 -81 -87
-27 -9 -29 -8 -29 15 0 35 25 90 47 103 21 12 26 13 47 5z"/>
<path d="M5040 3293 c0 -595 1 -625 18 -611 9 8 153 124 319 256 323 258 337
266 415 243 26 -8 160 -108 416 -313 207 -165 384 -307 392 -314 14 -11 70 30
408 300 216 173 406 319 424 325 41 15 72 14 111 -3 18 -7 207 -153 420 -324
l388 -311 398 318 c218 175 408 321 422 324 37 10 75 8 106 -5 21 -10 701
-544 794 -625 14 -12 23 -8 73 32 l56 46 0 645 0 644 -1778 0 -1779 0 -14 -26
c-28 -53 -146 -150 -224 -185 l-75 -34 0 -71 c0 -78 -18 -117 -73 -158 -39
-29 -125 -29 -164 0 -55 41 -73 80 -73 158 l-1 71 -79 37 c-81 39 -185 124
-217 179 l-17 29 -333 0 -333 0 0 -627z"/>
<path d="M10520 2027 c0 -1733 1 -1895 16 -1916 38 -54 -85 -51 2206 -51 2001
0 2125 1 2158 18 19 9 40 28 47 42 10 20 13 423 13 1913 l0 1887 -140 0 -140
0 0 -227 c0 -210 -2 -231 -20 -261 -11 -18 -34 -41 -52 -52 -32 -19 -52 -20
-479 -20 l-446 0 -33 23 c-74 50 -75 53 -78 308 l-3 229 -164 0 -164 0 -3
-222 c-3 -249 -8 -269 -78 -315 l-33 -23 -446 0 c-427 0 -447 1 -479 20 -18
11 -41 34 -52 52 -18 30 -20 51 -20 261 l0 227 -109 0 -110 0 -3 -229 c-3
-255 -4 -258 -78 -308 l-33 -23 -446 0 c-427 0 -447 1 -479 20 -18 11 -41 34
-52 52 -18 30 -20 51 -20 261 l0 227 -140 0 -140 0 0 -1893z m1296 1032 c26
-12 53 -36 66 -57 23 -37 23 -39 26 -467 l3 -430 -23 -45 c-13 -25 -38 -55
-57 -67 l-34 -23 -439 0 c-491 0 -486 -1 -534 69 l-24 36 0 443 c0 476 -1 470
53 520 13 13 37 27 53 32 16 4 218 9 448 9 405 1 421 0 462 -20z m1306 11 c56
-16 105 -77 113 -142 3 -29 5 -231 3 -448 -3 -377 -4 -397 -24 -430 -11 -19
-35 -45 -54 -57 l-33 -23 -446 0 c-427 0 -447 1 -479 20 -18 11 -41 34 -52 52
-19 32 -20 52 -20 476 0 476 -1 470 53 520 13 13 37 27 53 32 42 12 841 12
886 0z m1491 -23 c70 -53 68 -37 65 -535 -3 -444 -3 -447 -25 -478 -46 -64
-45 -64 -531 -64 l-439 0 -34 23 c-19 12 -44 42 -57 67 l-23 45 3 430 c3 428
3 430 26 467 13 20 41 45 65 57 41 21 51 21 478 19 l436 -3 36 -28z m-2793
-1379 c26 -14 53 -37 65 -58 19 -33 20 -54 23 -465 l3 -430 -23 -44 c-13 -25
-36 -54 -51 -65 -28 -20 -42 -21 -474 -24 l-445 -3 -43 25 c-76 45 -75 37 -75
531 0 467 0 463 52 512 12 12 34 26 48 32 15 6 193 10 450 10 422 1 426 1 470
-21z m1326 1 c26 -12 53 -36 66 -57 l23 -37 0 -440 c0 -489 1 -478 -67 -527
l-33 -23 -442 -3 c-426 -2 -444 -2 -482 17 -21 11 -48 36 -60 54 -21 34 -21
45 -21 483 l0 448 23 33 c12 18 40 42 62 53 38 19 61 20 464 20 409 0 426 -1
467 -21z m1461 -5 c15 -11 38 -36 51 -54 l23 -34 -3 -450 c-3 -433 -4 -452
-23 -478 -11 -15 -37 -36 -57 -48 -36 -20 -46 -21 -482 -18 -431 3 -445 4
-473 24 -15 11 -38 40 -50 64 -23 44 -23 48 -23 465 0 416 0 421 23 465 16 33
34 51 67 68 l45 22 437 -2 c425 -3 437 -4 465 -24z"/>
<path d="M11112 2523 l3 -238 238 -3 237 -2 0 240 0 240 -240 0 -240 0 2 -237z"/>
<path d="M12442 2523 l3 -238 235 0 235 0 3 238 2 237 -240 0 -240 0 2 -237z"/>
<path d="M13890 2520 l0 -240 238 2 237 3 3 238 2 237 -240 0 -240 0 0 -240z"/>
<path d="M11110 1135 l0 -235 240 0 240 0 0 235 0 235 -240 0 -240 0 0 -235z"/>
<path d="M12440 1135 l0 -235 240 0 240 0 0 235 0 235 -240 0 -240 0 0 -235z"/>
<path d="M13890 1135 l0 -235 240 0 240 0 0 235 0 235 -240 0 -240 0 0 -235z"/>
<path d="M11112 3798 l3 -123 238 -3 237 -2 0 125 0 125 -240 0 -241 0 3 -122z"/>
<path d="M12440 3795 l0 -125 240 0 240 0 0 125 0 125 -240 0 -240 0 0 -125z"/>
<path d="M13890 3795 l0 -125 238 2 237 3 3 123 3 122 -241 0 -240 0 0 -125z"/>
</g>
</svg>
