<?xml version="1.0" standalone="no"?>
<!DOCTYPE svg PUBLIC "-//W3C//DTD SVG 20010904//EN"
 "http://www.w3.org/TR/2001/REC-SVG-20010904/DTD/svg10.dtd">
<svg version="1.0" xmlns="http://www.w3.org/2000/svg"
 width="2000.000000pt" height="1999.000000pt" viewBox="0 0 2000.000000 1999.000000"
 preserveAspectRatio="xMidYMid meet">

<g transform="translate(0.000000,1999.000000) scale(0.100000,-0.100000)"
fill="#000000" stroke="none">
<path d="M9770 19984 c-1767 -48 -3419 -527 -4920 -1427 -830 -499 -1613
-1144 -2270 -1873 -797 -885 -1428 -1898 -1868 -3004 -301 -754 -505 -1540
-616 -2370 -92 -685 -110 -1476 -51 -2165 149 -1710 705 -3290 1657 -4713 617
-921 1393 -1741 2283 -2414 868 -656 1865 -1178 2895 -1516 1796 -590 3742
-656 5583 -191 988 250 1948 660 2832 1211 1328 827 2484 2009 3287 3358 755
1269 1217 2667 1357 4110 40 407 46 531 46 1005 0 474 -6 598 -46 1005 -184
1888 -925 3712 -2117 5210 -555 697 -1207 1323 -1929 1853 -690 506 -1500 948
-2305 1258 -963 371 -2004 594 -3028 648 -216 12 -625 19 -790 15z m540 -144
c1423 -49 2733 -371 3987 -980 993 -482 1864 -1102 2649 -1885 786 -785 1384
-1611 1870 -2585 932 -1870 1243 -3962 898 -6035 -473 -2837 -2192 -5345
-4679 -6827 -1002 -597 -2105 -1012 -3250 -1222 -1820 -333 -3723 -146 -5429
535 -459 184 -957 429 -1361 669 -570 339 -1072 708 -1580 1159 -269 239 -682
665 -941 971 -1269 1499 -2059 3345 -2269 5300 -64 599 -71 1297 -20 1900 170
1980 930 3852 2190 5390 294 359 729 815 1050 1100 873 775 1824 1369 2880
1798 1048 427 2201 672 3342 711 339 12 344 12 663 1z"/>
<path d="M9760 19583 c-2345 -57 -4583 -971 -6297 -2572 -1462 -1364 -2460
-3139 -2857 -5078 -352 -1716 -228 -3514 354 -5148 516 -1448 1373 -2751 2503
-3806 868 -811 1886 -1456 2992 -1897 843 -336 1748 -553 2655 -636 575 -53
1205 -53 1780 0 1885 173 3690 909 5155 2103 368 300 863 777 1160 1116 762
873 1343 1835 1755 2904 243 630 429 1345 529 2026 124 848 133 1755 26 2609
-136 1074 -440 2078 -926 3056 -380 763 -816 1414 -1384 2065 -193 220 -663
691 -880 880 -637 554 -1268 980 -2010 1355 -1130 571 -2312 900 -3600 1000
-164 13 -652 30 -765 28 -47 -1 -132 -3 -190 -5z m847 -6030 c-77 -109 -72
-45 -75 -935 l-3 -798 -172 0 c-147 0 -178 -3 -214 -19 -81 -37 -77 -3 -83
-720 -4 -568 -7 -635 -21 -644 -13 -8 -42 10 -142 91 -74 60 -135 102 -148
102 -12 0 -72 -40 -140 -95 -66 -53 -125 -98 -132 -101 -8 -3 -70 40 -139 96
-69 55 -135 100 -146 100 -12 0 -78 -46 -148 -101 -108 -86 -130 -100 -145
-91 -10 7 -68 52 -129 102 -68 55 -120 90 -135 90 -13 0 -62 -32 -121 -79
l-99 -79 -3 1439 c-2 1437 -2 1438 19 1494 27 73 100 146 171 174 52 20 73 20
1045 20 l993 1 -33 -47z m398 28 c60 -27 101 -66 129 -123 l26 -52 0 -423 0
-423 -260 0 -260 0 0 423 c0 387 2 425 19 462 45 100 131 155 240 155 42 0 81
-7 106 -19z m568 -1873 c16 -12 17 -84 15 -1043 l-3 -1030 -705 0 -705 0 -3
1030 c-2 959 -1 1031 15 1043 13 9 168 12 693 12 525 0 680 -3 693 -12z
m-5006 -2464 c60 -4 93 -11 97 -19 2 -7 -17 -67 -42 -134 -33 -85 -52 -121
-63 -121 -14 0 -15 13 -11 99 l5 99 -104 6 c-57 3 -152 8 -211 11 l-108 6 0
-661 c0 -572 2 -665 15 -690 16 -30 66 -61 119 -74 57 -14 12 -20 -150 -21
-143 0 -163 2 -157 15 5 8 9 333 11 722 l3 708 -153 -6 c-84 -4 -180 -9 -213
-13 l-60 -6 2 -98 c1 -85 -1 -98 -14 -95 -18 3 -114 234 -106 255 3 7 45 14
111 18 59 3 118 8 132 10 36 5 789 -4 897 -11z m4020 0 c64 -5 93 -11 97 -20
3 -7 -16 -68 -41 -134 -33 -85 -51 -120 -62 -120 -15 0 -16 13 -13 99 l4 99
-103 6 c-57 3 -152 8 -211 11 l-108 6 0 -656 c0 -545 2 -661 14 -690 15 -34
61 -65 120 -79 57 -14 12 -20 -150 -21 -143 0 -163 2 -157 15 5 8 9 334 11
723 l2 708 -117 -6 c-304 -15 -302 -14 -309 -41 -4 -14 -3 -59 1 -100 6 -69 5
-76 -10 -72 -12 2 -32 39 -61 113 -46 118 -51 143 -31 150 56 22 841 27 1124
9z m2852 -647 c151 -364 285 -683 298 -710 22 -45 91 -107 118 -107 7 0 18 -7
25 -15 11 -13 0 -15 -91 -15 -57 0 -133 -3 -169 -6 l-65 -6 0 73 c-1 70 -6 88
-114 357 l-113 282 -250 -2 -251 -3 -124 -290 c-106 -248 -123 -293 -114 -313
12 -25 102 -72 139 -72 12 0 22 -4 22 -10 0 -6 -55 -10 -145 -10 -120 0 -147
3 -151 15 -3 8 134 327 304 709 270 603 316 700 354 740 24 25 45 46 48 46 3
0 128 -298 279 -663z m1243 628 c75 -15 164 -54 208 -92 96 -80 127 -256 67
-386 -64 -141 -261 -256 -439 -257 -94 0 -93 34 2 48 199 30 300 144 300 341
0 101 -17 161 -61 214 -53 65 -97 81 -232 85 -65 2 -133 1 -152 -2 l-35 -7 0
-625 c0 -432 3 -639 11 -670 13 -50 52 -87 108 -101 75 -19 38 -28 -121 -28
l-163 0 0 665 c0 706 0 710 -47 739 -12 8 -45 16 -73 20 -35 4 -50 10 -50 21
0 11 22 18 90 27 236 33 450 36 587 8z m1221 0 c139 -29 227 -87 274 -183 25
-50 28 -68 28 -152 0 -85 -3 -101 -29 -150 -74 -140 -264 -249 -438 -250 -94
0 -93 34 2 48 77 11 159 45 205 85 119 99 134 352 30 475 -49 58 -96 75 -218
80 -59 2 -128 1 -153 -3 l-45 -6 3 -647 c3 -600 4 -649 21 -680 16 -29 61 -58
120 -76 47 -15 2 -21 -148 -21 l-164 0 7 40 c4 22 7 315 7 650 0 568 -1 613
-18 658 -21 54 -40 67 -111 76 -36 4 -51 10 -51 21 0 11 22 18 90 27 238 33
450 36 588 8z m-11782 -15 c4 -14 7 -258 8 -542 1 -537 7 -636 43 -720 26 -61
94 -123 149 -138 60 -16 172 -14 244 5 85 22 210 85 294 147 l71 53 0 522 c0
459 -2 528 -16 563 -19 48 -42 62 -108 70 -27 3 -51 10 -53 16 -5 15 131 44
234 51 82 6 82 6 93 -21 6 -18 10 -253 10 -664 0 -350 4 -654 9 -675 12 -52
45 -85 100 -101 83 -24 56 -32 -112 -31 l-163 0 4 93 c3 50 2 92 -1 92 -4 0
-37 -20 -74 -44 -94 -61 -215 -120 -295 -145 -133 -40 -291 -37 -395 9 -53 23
-129 93 -153 141 -35 67 -40 152 -40 666 0 440 -2 508 -16 543 -19 48 -55 70
-113 70 -34 0 -61 13 -49 25 12 13 204 44 258 42 59 -2 65 -4 71 -27z m3030
-5 c4 -16 7 -319 8 -673 1 -683 1 -683 49 -725 11 -10 40 -24 63 -31 24 -7 44
-17 46 -22 2 -5 -69 -9 -166 -9 l-168 0 9 26 c5 14 7 309 6 665 -3 595 -4 642
-21 676 -21 41 -54 58 -115 61 -27 1 -42 6 -42 14 0 7 3 13 8 13 4 0 48 9 97
20 50 10 119 18 155 17 63 -2 65 -3 71 -32z m715 13 c4 -13 10 -333 11 -712
l4 -689 199 7 c110 3 223 11 250 17 79 17 140 72 216 195 8 13 15 16 23 9 12
-12 -81 -274 -102 -287 -7 -4 -173 -8 -369 -8 -275 0 -359 3 -365 13 -4 6 -10
302 -13 657 -4 574 -7 649 -22 682 -21 47 -52 67 -111 71 -26 1 -47 7 -47 12
1 19 157 53 251 54 60 1 67 -1 75 -21z m1256 20 c1 -2 5 -309 8 -683 5 -629 6
-682 23 -713 16 -29 61 -58 120 -76 47 -15 2 -21 -148 -21 l-165 0 8 35 c4 19
7 314 7 655 0 673 -1 677 -55 716 -14 10 -46 20 -73 21 -26 2 -47 8 -47 13 1
19 156 53 253 54 37 1 68 0 69 -1z m1850 -10 c9 -7 96 -161 194 -343 97 -181
183 -338 190 -349 11 -17 19 -9 77 80 107 167 247 403 279 471 29 62 30 65 13
84 -17 18 -47 29 -119 44 -20 4 -26 9 -18 17 14 14 257 7 272 -8 16 -16 -1
-48 -213 -388 -99 -160 -193 -312 -208 -337 l-29 -46 0 -261 c0 -301 7 -351
53 -386 18 -14 47 -28 66 -33 76 -19 38 -28 -125 -28 -161 0 -165 1 -158 20 4
11 9 160 11 331 l5 311 -168 304 c-92 167 -183 326 -202 352 -42 58 -76 77
-141 77 -27 0 -52 4 -55 9 -3 5 22 21 57 36 118 54 188 67 219 43z m-3870
-2250 l3 -363 32 -15 c18 -8 33 -18 33 -21 0 -3 -56 -6 -125 -6 -69 0 -125 4
-125 8 0 5 7 9 15 9 8 0 24 9 35 20 19 19 20 33 20 338 0 271 -2 321 -16 340
-8 12 -24 22 -35 22 -10 0 -19 4 -19 10 0 5 28 11 63 13 34 2 74 4 89 5 l28 2
2 -362z m470 0 l3 -363 32 -15 c18 -8 33 -18 33 -21 0 -3 -56 -6 -125 -6 -69
0 -125 3 -125 6 0 3 15 13 33 21 l32 15 3 324 c2 278 0 327 -13 348 -9 12 -24
23 -35 23 -11 0 -20 4 -20 10 0 5 28 11 63 13 34 2 74 4 89 5 l28 2 2 -362z
m6616 336 c27 -18 30 -69 5 -96 -24 -27 -87 -24 -107 4 -23 33 -19 64 10 87
32 25 61 27 92 5z m-9898 -149 c0 -78 -3 -105 -13 -105 -7 0 -17 24 -24 61
-13 71 -40 104 -92 119 -54 15 -133 12 -159 -6 -21 -14 -22 -21 -22 -166 l0
-151 53 7 c59 8 81 27 97 87 20 75 30 41 30 -103 0 -142 -6 -160 -28 -82 -16
54 -37 71 -100 80 l-52 7 0 -137 c0 -76 4 -146 10 -156 6 -11 26 -21 50 -25
82 -14 36 -25 -105 -25 -142 0 -177 8 -113 26 22 6 35 18 39 34 11 39 10 556
-1 585 -6 17 -20 27 -40 31 -79 16 -8 24 220 24 l250 0 0 -105z m587 -107 c28
-19 50 -45 69 -85 25 -50 29 -69 28 -148 0 -97 -19 -156 -64 -204 -75 -77
-239 -82 -318 -8 -53 49 -67 93 -67 212 0 94 3 116 22 150 46 86 104 116 214
113 63 -3 82 -8 116 -30z m525 -20 l3 -53 20 33 c59 98 205 95 205 -5 0 -37
-29 -73 -60 -73 -25 0 -60 34 -60 58 0 10 7 27 15 39 21 29 5 36 -36 15 -20
-10 -44 -35 -59 -62 -23 -41 -25 -58 -28 -185 -4 -168 2 -189 58 -206 22 -7
40 -15 40 -20 0 -4 -61 -7 -135 -6 -128 0 -167 9 -109 23 14 4 30 17 35 31 13
34 11 353 -2 392 -7 20 -20 33 -35 37 -45 12 -24 23 49 27 39 1 77 4 84 5 8 1
13 -17 15 -50z m1168 37 c57 -30 65 -60 68 -273 3 -164 6 -194 19 -199 9 -3
24 -1 34 6 15 9 19 8 19 -2 0 -23 -43 -38 -95 -35 -43 3 -52 7 -72 36 -20 31
-22 32 -32 14 -28 -53 -167 -71 -217 -29 -38 33 -46 119 -14 160 25 31 77 60
159 88 80 28 91 41 91 111 0 58 -12 95 -34 110 -17 12 -95 9 -118 -3 l-20 -11
21 -19 c30 -28 32 -75 3 -96 -42 -33 -102 -1 -102 55 0 29 47 75 92 89 51 17
164 15 198 -2z m2698 0 c47 -20 78 -50 105 -100 19 -34 22 -56 22 -150 0 -119
-14 -163 -67 -212 -93 -87 -281 -64 -344 42 -79 136 -40 351 75 412 53 28 152
31 209 8z m552 -213 c0 -256 2 -266 63 -266 43 0 81 24 104 67 14 25 18 63 21
171 5 162 -5 212 -43 222 -46 11 -26 24 38 24 34 0 72 3 84 6 l22 6 3 -232 c3
-227 3 -232 26 -250 12 -10 28 -20 35 -23 25 -9 -1 -15 -80 -19 l-83 -3 0 50
0 50 -21 -33 c-64 -99 -241 -95 -269 6 -5 20 -10 115 -10 210 0 159 -2 174
-20 192 -11 11 -27 20 -35 20 -8 0 -15 4 -15 10 0 5 35 11 78 13 42 1 83 4 90
5 9 2 12 -49 12 -226z m770 176 l0 -53 19 31 c42 69 125 96 178 59 69 -48 7
-166 -62 -121 -29 19 -34 66 -10 86 20 17 8 32 -18 24 -33 -10 -68 -45 -88
-89 -15 -33 -19 -66 -19 -191 0 -167 3 -175 68 -189 68 -14 27 -23 -108 -22
-77 0 -140 3 -140 6 0 3 15 13 33 21 l32 15 3 198 c3 210 -1 232 -43 243 -47
12 -25 23 53 27 42 1 83 4 90 5 8 1 12 -14 12 -50z m1120 32 l39 -20 11 20
c22 41 31 20 28 -62 -2 -46 -7 -83 -12 -83 -4 0 -17 24 -28 52 -24 65 -57 93
-111 93 -52 0 -77 -22 -77 -70 0 -41 21 -64 105 -120 136 -89 174 -167 125
-248 -41 -67 -165 -93 -245 -52 -22 11 -42 20 -46 20 -4 0 -11 -9 -14 -20 -15
-46 -25 -14 -25 80 0 78 3 100 14 100 8 0 16 -16 20 -42 4 -23 14 -57 23 -75
43 -92 183 -79 183 16 0 48 -23 78 -105 136 -119 85 -152 145 -121 218 8 20
30 46 48 57 45 27 135 27 188 0z m690 -1 c45 -25 76 -76 85 -141 l7 -48 -151
0 -151 0 0 -57 c0 -112 38 -183 110 -204 52 -16 122 9 147 52 16 27 43 40 43
21 0 -22 -64 -94 -99 -112 -97 -49 -236 -5 -286 90 -55 105 -30 295 47 367 59
55 179 71 248 32z m510 -31 l0 -53 24 36 c33 49 68 69 116 69 83 0 120 -87 57
-134 -26 -19 -30 -19 -55 -5 -33 18 -41 62 -16 90 9 10 13 20 8 20 -46 6 -87
-25 -115 -86 -15 -33 -19 -65 -19 -185 0 -164 6 -183 65 -194 74 -14 30 -24
-105 -23 -77 0 -140 3 -140 6 0 3 15 13 33 21 l32 15 3 204 c2 179 0 206 -14
222 -10 11 -25 19 -36 19 -10 0 -18 4 -18 10 0 5 35 11 78 13 42 1 83 4 90 5
8 1 12 -14 12 -50z m1290 -174 c0 -127 4 -233 10 -244 5 -10 21 -21 35 -24 56
-14 18 -23 -100 -24 -120 0 -155 8 -98 23 15 3 31 12 35 18 4 7 8 102 8 211 0
172 -2 202 -17 218 -9 10 -24 18 -35 18 -10 0 -18 4 -18 10 0 5 35 11 78 13
42 1 83 4 90 5 9 2 12 -49 12 -224z m650 206 c22 -11 44 -29 50 -39 15 -29 12
-77 -6 -95 -23 -24 -70 -20 -88 6 -23 32 -20 54 10 82 26 24 26 24 6 35 -30
16 -94 13 -120 -5 -12 -8 -32 -34 -45 -57 -19 -36 -22 -57 -22 -152 0 -156 27
-211 111 -229 45 -10 110 19 138 61 16 23 26 30 31 23 9 -14 -40 -85 -77 -113
-34 -25 -122 -34 -173 -17 -90 30 -147 123 -148 245 -1 123 52 224 137 261 48
21 150 18 196 -6z m650 2 c42 -23 76 -80 85 -144 l7 -48 -151 0 -151 0 0 -59
c0 -68 13 -113 46 -158 50 -67 147 -65 211 5 43 47 55 33 17 -21 -41 -58 -95
-87 -164 -87 -69 0 -127 26 -167 74 -39 48 -55 102 -54 190 1 168 84 266 226
266 39 0 72 -6 95 -18z m610 -2 l40 -20 12 20 c23 36 29 21 26 -62 -3 -91 -15
-102 -36 -33 -17 59 -61 95 -114 95 -50 0 -78 -22 -78 -62 0 -45 14 -62 97
-121 137 -96 165 -137 149 -220 -17 -88 -163 -137 -261 -87 -49 25 -51 25 -58
-1 -3 -12 -10 -18 -16 -14 -12 7 -15 152 -5 179 8 22 24 20 24 -2 0 -39 33
-113 62 -137 37 -31 86 -33 122 -4 21 16 26 29 26 63 0 36 -6 47 -37 77 -21
20 -61 52 -90 73 -83 59 -103 89 -103 149 0 58 17 87 65 111 43 22 127 20 175
-4z m-7650 1 c0 -5 -13 -11 -30 -14 -23 -5 -30 -12 -30 -29 0 -30 122 -330
130 -321 4 5 28 65 54 135 56 151 57 185 9 208 -18 8 -33 18 -33 23 0 4 36 7
80 7 79 0 98 -9 61 -29 -22 -12 -33 -39 -152 -356 -105 -283 -119 -305 -191
-305 -56 0 -88 22 -88 60 0 50 44 75 91 50 22 -12 26 -59 7 -78 -9 -9 -7 -12
8 -12 27 0 56 34 81 96 l20 51 -98 232 c-54 128 -103 239 -109 246 -7 8 -20
17 -31 20 -47 15 -10 24 101 24 66 0 120 -4 120 -8z m5100 0 c0 -5 -12 -11
-26 -13 -52 -6 -51 -24 18 -198 36 -90 68 -158 71 -153 4 6 30 73 58 149 57
157 58 177 1 202 l-37 17 84 3 c46 2 86 1 88 -2 3 -2 -9 -17 -25 -33 -24 -22
-49 -77 -113 -250 -64 -172 -86 -223 -100 -223 -12 0 -31 34 -69 128 -120 293
-143 343 -161 353 -41 21 -16 29 96 29 65 0 115 -4 115 -9z"/>
<path d="M8618 13118 c-28 -24 -29 -48 -2 -75 19 -19 31 -23 52 -18 32 8 38
13 46 42 14 45 -57 82 -96 51z"/>
<path d="M8830 13110 c-24 -24 -25 -39 -6 -66 12 -16 29 -20 105 -22 85 -4 91
-3 115 21 17 17 24 32 20 44 -13 35 -36 43 -126 43 -75 0 -91 -3 -108 -20z"/>
<path d="M9185 13114 c-23 -23 -15 -66 15 -81 20 -10 145 -12 573 -10 530 2
549 3 563 21 19 27 18 42 -6 66 -20 20 -33 20 -574 20 -499 0 -556 -2 -571
-16z"/>
<path d="M8604 12675 c-15 -23 -15 -27 0 -50 12 -19 25 -25 51 -25 26 0 39 6
51 25 15 23 15 27 0 50 -12 19 -25 25 -51 25 -26 0 -39 -6 -51 -25z"/>
<path d="M8824 12675 c-15 -23 -15 -27 0 -50 16 -24 21 -25 109 -25 94 0 118
8 130 41 3 9 -1 26 -9 38 -14 19 -25 21 -114 21 -95 0 -100 -1 -116 -25z"/>
<path d="M9182 12688 c-19 -19 -15 -66 7 -78 13 -6 211 -10 575 -10 l556 0 16
25 c15 23 15 27 0 50 l-16 25 -563 0 c-425 0 -566 -3 -575 -12z"/>
<path d="M8618 12268 c-24 -20 -28 -44 -12 -67 21 -29 77 -29 98 1 20 29 20
34 -4 58 -23 23 -59 26 -82 8z"/>
<path d="M8830 12260 c-24 -24 -25 -43 -4 -64 12 -12 38 -16 114 -16 89 0 100
2 114 21 8 12 12 29 9 38 -12 33 -36 41 -125 41 -75 0 -91 -3 -108 -20z"/>
<path d="M9188 12269 c-21 -12 -24 -59 -6 -77 9 -9 150 -12 574 -12 l563 0 15
22 c20 29 20 34 -4 58 -20 20 -33 20 -572 20 -357 -1 -559 -4 -570 -11z"/>
<path d="M8607 11829 c-30 -42 12 -89 67 -75 64 16 49 96 -19 96 -23 0 -39 -7
-48 -21z"/>
<path d="M8827 11832 c-22 -24 -21 -38 3 -62 17 -17 33 -20 108 -20 89 0 113
8 125 41 3 9 -1 26 -9 38 -14 19 -25 21 -113 21 -82 0 -101 -3 -114 -18z"/>
<path d="M9182 11838 c-19 -19 -15 -66 7 -78 13 -6 144 -10 360 -10 367 0 371
1 371 54 0 45 -4 46 -375 46 -260 0 -354 -3 -363 -12z"/>
<path d="M8737 11442 c-10 -10 -17 -27 -17 -38 0 -12 -14 -27 -36 -39 -111
-60 -118 -219 -13 -297 13 -10 49 -22 79 -28 58 -11 100 -44 100 -80 0 -34
-43 -73 -80 -73 -35 0 -70 31 -70 62 0 53 -67 81 -94 39 -30 -46 7 -131 77
-177 25 -16 37 -32 37 -47 0 -29 25 -54 54 -54 29 0 46 18 46 49 1 20 11 32
44 52 49 30 86 94 86 149 0 49 -37 117 -78 145 -20 14 -59 28 -86 31 -63 9
-88 33 -84 81 6 66 76 93 122 48 9 -9 20 -33 26 -55 12 -46 40 -59 75 -36 55
36 5 163 -76 196 -22 10 -29 19 -29 41 0 46 -52 65 -83 31z"/>
<path d="M9147 10982 c-20 -22 -22 -53 -5 -70 9 -9 73 -12 224 -12 180 0 215
2 228 16 21 21 20 40 -4 64 -19 19 -33 20 -223 20 -185 0 -205 -2 -220 -18z"/>
<path d="M9708 10989 c-21 -12 -24 -59 -6 -77 17 -17 249 -17 266 0 18 18 15
53 -6 71 -15 14 -40 17 -128 17 -60 0 -117 -5 -126 -11z"/>
<path d="M10282 11614 c-21 -15 -22 -21 -22 -188 0 -120 4 -176 12 -184 17
-17 1199 -17 1216 0 8 8 12 64 12 184 0 167 -1 173 -22 188 -20 14 -93 16
-598 16 -505 0 -578 -2 -598 -16z m1118 -189 l0 -95 -520 0 -520 0 0 95 0 95
520 0 520 0 0 -95z"/>
<path d="M10272 11028 c-17 -17 -17 -309 0 -326 8 -8 59 -12 163 -12 104 0
155 4 163 12 8 8 12 59 12 163 0 104 -4 155 -12 163 -17 17 -309 17 -326 0z
m238 -163 l0 -75 -75 0 -75 0 0 75 0 75 75 0 75 0 0 -75z"/>
<path d="M10697 11022 c-14 -15 -17 -42 -17 -156 0 -76 5 -146 10 -157 10 -18
23 -19 170 -19 147 0 160 1 170 19 5 11 10 82 10 160 0 114 -3 142 -16 155
-13 13 -42 16 -163 16 -131 0 -150 -2 -164 -18z m243 -157 l0 -75 -80 0 -80 0
0 75 0 75 80 0 80 0 0 -75z"/>
<path d="M11162 11028 c-17 -17 -17 -309 0 -326 8 -8 59 -12 163 -12 104 0
155 4 163 12 8 8 12 59 12 163 0 104 -4 155 -12 163 -17 17 -309 17 -326 0z
m238 -163 l0 -75 -75 0 -75 0 0 75 0 75 75 0 75 0 0 -75z"/>
<path d="M10276 10584 c-13 -13 -16 -43 -16 -169 0 -142 2 -155 19 -165 11 -5
82 -10 160 -10 114 0 142 3 155 16 13 13 16 42 16 164 0 189 9 180 -182 180
-111 0 -140 -3 -152 -16z m234 -169 l0 -75 -75 0 -75 0 0 75 0 75 75 0 75 0 0
-75z"/>
<path d="M10700 10580 c-18 -18 -20 -33 -20 -158 0 -191 -9 -182 179 -182 191
0 181 -10 181 178 0 189 7 182 -180 182 -127 0 -142 -2 -160 -20z m240 -165
l0 -76 -77 3 -78 3 -3 73 -3 72 81 0 80 0 0 -75z"/>
<path d="M11172 10584 c-21 -15 -22 -21 -22 -169 0 -142 2 -155 19 -165 11 -5
81 -10 156 -10 75 0 145 5 156 10 17 10 19 23 19 164 0 196 9 186 -171 186
-106 0 -139 -3 -157 -16z m228 -169 l0 -75 -75 0 -75 0 0 75 0 75 75 0 75 0 0
-75z"/>
<path d="M10272 10138 c-8 -8 -12 -59 -12 -164 0 -193 -8 -184 175 -184 184 0
175 -9 175 185 0 142 -2 155 -19 165 -28 15 -304 13 -319 -2z m238 -163 l0
-75 -75 0 -75 0 0 75 0 75 75 0 75 0 0 -75z"/>
<path d="M10697 10132 c-23 -25 -25 -287 -3 -318 13 -17 27 -19 166 -19 139 0
153 2 166 19 10 15 14 55 14 161 0 184 10 175 -182 175 -128 0 -147 -2 -161
-18z m243 -157 l0 -75 -80 0 -80 0 0 75 0 75 80 0 80 0 0 -75z"/>
<path d="M11162 10138 c-8 -8 -12 -59 -12 -164 0 -193 -8 -184 175 -184 183 0
175 -9 175 184 0 105 -4 156 -12 164 -8 8 -59 12 -163 12 -104 0 -155 -4 -163
-12z m238 -163 l0 -75 -75 0 -75 0 0 75 0 75 75 0 75 0 0 -75z"/>
<path d="M12975 8784 c-61 -141 -111 -260 -113 -265 -2 -5 96 -9 218 -9 174 0
221 3 217 13 -101 257 -201 504 -206 509 -4 4 -56 -108 -116 -248z"/>
<path d="M4685 7044 c-37 -40 -49 -90 -50 -209 0 -137 8 -176 47 -220 40 -47
87 -48 128 -5 36 39 50 98 50 215 0 117 -14 176 -50 215 -37 40 -90 42 -125 4z"/>
<path d="M6470 6830 c-82 -42 -105 -71 -105 -132 0 -40 4 -53 24 -69 30 -24
58 -24 98 1 40 24 45 42 41 146 l-3 82 -55 -28z"/>
<path d="M9111 7046 c-12 -13 -29 -45 -37 -71 -17 -58 -19 -227 -3 -291 26
-102 109 -136 167 -69 39 44 47 82 47 220 0 119 -12 168 -50 209 -33 35 -92
36 -124 2z"/>
<path d="M12237 7040 c-25 -30 -47 -86 -47 -122 0 -16 11 -18 96 -18 l96 0 -4
55 c-6 72 -32 109 -80 113 -29 3 -40 -2 -61 -28z"/>
<path d="M15342 7047 c-21 -23 -52 -102 -52 -134 0 -10 22 -13 96 -13 l96 0
-4 55 c-6 71 -32 109 -79 113 -26 2 -40 -3 -57 -21z"/>
</g>
</svg>
